<?xml version="1.0" encoding="utf-8"?>
<svg xmlns="http://www.w3.org/2000/svg" xmlns:svg="http://www.w3.org/2000/svg" version="1.1" viewBox="0 0 1400 520">
	<title>The titlepage for the Standard Ebooks edition of The Moon and Sixpence, by William Somerset Maugham</title>
	<g aria-label="THE">
		<path d="m 605.10526,68.245613 h 18.33918 V 130 h 17.59065 V 68.245613 h 18.33918 V 52.807016 h -54.26901 z"/>
		<path d="M 688.29971,99.029239 H 713.1886 V 130 h 17.59064 V 52.807016 H 713.1886 V 83.590642 H 688.29971 V 52.807016 H 670.70906 V 130 h 17.59065 z"/>
		<path d="M 791.14474,52.807016 H 746.981 V 130 h 44.16374 v -15.4386 h -26.5731 V 99.029239 h 25.45029 V 83.590642 H 764.57164 V 68.245613 h 26.5731 z"/>
	</g>
	<g aria-label="MOON AND SIXPENCE">
		<path d="m 188.85672,230 h 17.59064 l -6.92398,-77.19298 h -18.71345 l -17.1228,44.53801 -17.12281,-44.53801 H 127.85087 L 120.92689,230 h 17.59064 l 3.64913,-45.75439 h 0.46783 l 15.81287,45.28655 h 10.47953 l 15.81287,-45.28655 h 0.46783 z"/>
		<path d="m 215.03216,191.35672 c 0,22.54971 16.09356,40.04679 38.92397,40.04679 22.17544,0 38.83041,-17.49708 38.83041,-40.04679 0,-22.5497 -17.40351,-39.95321 -38.83041,-39.95321 -21.23976,0 -38.92397,17.40351 -38.92397,39.95321 z m 18.99415,0 c 0,-11.50877 6.36257,-23.01754 19.92982,-23.01754 13.66082,0 19.83626,11.50877 19.83626,23.01754 0,11.50878 -5.80117,23.01755 -19.83626,23.01755 -14.40935,0 -19.92982,-11.50877 -19.92982,-23.01755 z"/>
		<path d="m 302.08626,191.35672 c 0,22.54971 16.09356,40.04679 38.92397,40.04679 22.17544,0 38.83041,-17.49708 38.83041,-40.04679 0,-22.5497 -17.40351,-39.95321 -38.83041,-39.95321 -21.23976,0 -38.92397,17.40351 -38.92397,39.95321 z m 18.99415,0 c 0,-11.50877 6.36257,-23.01754 19.92982,-23.01754 13.66082,0 19.83626,11.50877 19.83626,23.01754 0,11.50878 -5.80117,23.01755 -19.83626,23.01755 -14.40935,0 -19.92982,-11.50877 -19.92982,-23.01755 z"/>
		<path d="m 410.19297,182.09357 h 0.18713 L 441.07016,230 h 17.59064 v -77.19298 h -17.59064 v 47.90643 h -0.18714 L 410.19297,152.80702 H 392.60232 V 230 h 17.59065 z"/>
		<path d="m 544.69445,152.80702 h -16.2807 L 497.25585,230 h 18.90059 l 5.7076,-15.4386 h 29.38012 L 556.95176,230 h 18.90059 z m 0.56141,46.31579 h -17.40351 l 8.60818,-22.45614 h 0.18714 z"/>
		<path d="m 601.36258,182.09357 h 0.18714 L 632.23978,230 h 17.59064 v -77.19298 h -17.59064 v 47.90643 h -0.18714 L 601.36258,152.80702 H 583.77194 V 230 h 17.59064 z"/>
		<path d="M 666.07455,152.80702 V 230 h 22.36257 c 21.23977,0 38.92398,-16.09357 38.92398,-38.64328 0,-22.45614 -17.77778,-38.5497 -38.92398,-38.5497 z m 17.59064,61.47368 v -45.75439 h 2.71345 c 13.09942,0 21.98831,10.0117 21.98831,22.92398 -0.0936,12.91228 -8.98246,22.83041 -21.98831,22.83041 z"/>
		<path d="m 797.35524,151.40351 c -12.44445,0 -25.16959,9.16959 -25.16959,23.57895 0,8.04678 5.4269,15.25146 14.69006,19.83625 9.16959,4.5848 17.40351,7.11111 17.40351,12.72515 0,7.20468 -7.29825,7.57895 -11.13451,7.57895 -8.60819,0 -18.90058,-8.70176 -18.90058,-8.70176 l -8.79532,14.78363 c 0,0 10.94736,10.19883 29.00584,10.19883 15.06433,0 29.09942,-6.45614 29.09942,-24.88889 0,-10.10526 -9.45029,-17.40351 -18.05848,-21.05263 -8.79532,-3.74269 -16.09357,-6.83041 -16.09357,-11.13451 0,-4.21052 3.18129,-6.92397 9.16959,-6.92397 7.95322,0 15.62573,5.33333 15.62573,5.33333 l 7.11112,-14.03509 c 0,0 -9.91813,-7.29824 -23.95322,-7.29824 z"/>
		<path d="M 854.36698,152.80702 H 836.77633 V 230 h 17.59065 z"/>
		<path d="m 942.88452,230 -30.12866,-41.54386 25.26316,-35.64912 h -21.89473 l -14.22223,21.05263 -14.22222,-21.05263 H 866.72078 L 891.04826,188.45614 861.85528,230 h 21.80117 L 901.90206,203.7076 920.14768,230 Z"/>
		<path d="M 950.39474,152.80702 V 230 h 17.59064 v -28.63158 h 10.5731 c 15.06433,0 26.38592,-8.88889 26.38592,-24.79532 0,-16 -11.32159,-23.76608 -26.38592,-23.76608 z m 17.59064,34.52631 V 166.8421 h 4.95907 c 6.92398,0 13.47368,2.33919 13.47368,10.2924 0,7.85965 -6.5497,10.19883 -13.47368,10.19883 z"/>
		<path d="M 1061.8757,152.80702 H 1017.712 V 230 h 44.1637 v -15.4386 h -26.5731 v -15.53216 h 25.4503 v -15.4386 h -25.4503 v -15.34503 h 26.5731 z"/>
		<path d="m 1094.579,182.09357 h 0.1871 L 1125.4561,230 h 17.5907 v -77.19298 h -17.5907 v 47.90643 h -0.1871 l -30.69,-47.90643 h -17.5907 V 230 h 17.5907 z"/>
		<path d="m 1197.443,214.09357 c -17.6842,0 -25.4503,-12.35088 -25.4503,-22.73685 0,-10.29239 7.7661,-22.64327 25.4503,-22.64327 8.9825,0 15.1579,4.77193 15.1579,4.77193 l 7.4854,-14.97076 c 0,0 -8.6082,-7.11111 -25.3568,-7.11111 -21.8947,0 -41.8245,17.96491 -41.8245,40.14035 0,22.08187 20.0234,39.85965 41.8245,39.85965 16.7486,0 25.3568,-7.11111 25.3568,-7.11111 l -7.4854,-14.97076 c 0,0 -6.1754,4.77193 -15.1579,4.77193 z"/>
		<path d="m 1276.0716,152.80702 h -44.1637 V 230 h 44.1637 v -15.4386 h -26.5731 v -15.53216 h 25.4503 v -15.4386 h -25.4503 v -15.34503 h 26.5731 z"/>
	</g>
	<g aria-label="WILLIAM">
		<path d="m 572.37884,390 h 14.59649 l 16.49123,-57.89474 h -14.59649 l -9.89474,39.7193 h -0.35088 l -10.52631,-39.7193 h -9.96492 l -10.52631,39.7193 h -0.35088 l -9.89473,-39.7193 H 522.69463 L 539.18586,390 h 14.66666 l 9.26316,-32.49123 z"/>
		<path d="M 624.82402,332.10526 H 611.63103 V 390 h 13.19299 z"/>
		<path d="M 651.47972,332.10526 H 638.28674 V 390 h 33.1228 v -11.57895 h -19.92982 z"/>
		<path d="M 696.09047,332.10526 H 682.89748 V 390 h 33.12281 v -11.57895 h -19.92982 z"/>
		<path d="M 740.70121,332.10526 H 727.50823 V 390 h 13.19298 z"/>
		<path d="M 783.56744,332.10526 H 771.35692 L 747.98849,390 h 14.17544 l 4.2807,-11.57895 h 22.03509 L 792.76042,390 h 14.17544 z m 0.42105,34.73685 H 770.93586 L 777.392,350 h 0.14035 z"/>
		<path d="m 861.98519,390 h 13.19298 l -5.19298,-57.89474 H 855.9501 L 843.108,365.50877 830.26589,332.10526 H 816.2308 L 811.03782,390 h 13.19298 l 2.73685,-34.31579 h 0.35087 l 11.85965,33.96491 h 7.85965 l 11.85965,-33.96491 h 0.35088 z"/>
	</g>
	<g aria-label="SOMERSET MAUGHAM">
		<path d="m 277.4079,411.05263 c -9.33333,0 -18.87719,6.8772 -18.87719,17.68421 0,6.03509 4.07017,11.4386 11.01754,14.8772 6.87719,3.43859 13.05263,5.33333 13.05263,9.54385 0,5.40351 -5.47368,5.68422 -8.35088,5.68422 -6.45614,0 -14.17543,-6.52632 -14.17543,-6.52632 l -6.5965,11.08772 c 0,0 8.21053,7.64912 21.75439,7.64912 11.29825,0 21.82456,-4.8421 21.82456,-18.66666 0,-7.57895 -7.08772,-13.05264 -13.54386,-15.78948 -6.59649,-2.80702 -12.07017,-5.12281 -12.07017,-8.35088 0,-3.15789 2.38596,-5.19298 6.87719,-5.19298 5.96491,0 11.7193,4 11.7193,4 l 5.33333,-10.52631 c 0,0 -7.4386,-5.47369 -17.96491,-5.47369 z"/>
		<path d="m 305.6272,441.01754 c 0,16.91228 12.07017,30.03509 29.19298,30.03509 16.63158,0 29.12281,-13.12281 29.12281,-30.03509 0,-16.91228 -13.05263,-29.96491 -29.12281,-29.96491 -15.92982,0 -29.19298,13.05263 -29.19298,29.96491 z m 14.24561,0 c 0,-8.63157 4.77193,-17.26315 14.94737,-17.26315 10.24561,0 14.87719,8.63158 14.87719,17.26315 0,8.63158 -4.35087,17.26316 -14.87719,17.26316 -10.80702,0 -14.94737,-8.63158 -14.94737,-17.26316 z"/>
		<path d="m 422.62391,470 h 13.19298 l -5.19298,-57.89474 h -14.03509 l -12.8421,33.40351 -12.84211,-33.40351 H 376.86953 L 371.67654,470 h 13.19299 l 2.73684,-34.31579 h 0.35087 l 11.85965,33.96491 h 7.85965 l 11.85965,-33.96491 h 0.35088 z"/>
		<path d="M 479.22478,412.10526 H 446.10197 V 470 h 33.12281 v -11.57895 h -19.92983 v -11.64912 h 19.08772 v -11.57895 h -19.08772 v -11.50877 h 19.92983 z"/>
		<path d="M 491.80921,412.10526 V 470 H 505.0022 V 447.12281 L 522.68641,470 h 16.77193 l -19.92983,-23.92982 c 7.08772,-2.24562 11.85965,-8.07018 11.85965,-16.77193 0,-11.36842 -8.14035,-17.19299 -18.87719,-17.19299 z m 13.19299,25.68421 v -15.15789 h 1.54386 c 4.98245,0 10.94737,0.35088 10.94737,7.57895 0,7.22807 -5.96492,7.57894 -10.94737,7.57894 z"/>
		<path d="m 568.44409,411.05263 c -9.33333,0 -18.87719,6.8772 -18.87719,17.68421 0,6.03509 4.07017,11.4386 11.01754,14.8772 6.8772,3.43859 13.05263,5.33333 13.05263,9.54385 0,5.40351 -5.47368,5.68422 -8.35087,5.68422 -6.45614,0 -14.17544,-6.52632 -14.17544,-6.52632 l -6.59649,11.08772 c 0,0 8.21052,7.64912 21.75438,7.64912 11.29825,0 21.82456,-4.8421 21.82456,-18.66666 0,-7.57895 -7.08771,-13.05264 -13.54385,-15.78948 -6.5965,-2.80702 -12.07018,-5.12281 -12.07018,-8.35088 0,-3.15789 2.38596,-5.19298 6.87719,-5.19298 5.96492,0 11.7193,4 11.7193,4 l 5.33333,-10.52631 c 0,0 -7.43859,-5.47369 -17.96491,-5.47369 z"/>
		<path d="m 632.38267,412.10526 h -33.1228 V 470 h 33.1228 v -11.57895 h -19.92982 v -11.64912 h 19.08772 v -11.57895 h -19.08772 v -11.50877 h 19.92982 z"/>
		<path d="m 641.31799,423.68421 h 13.75439 V 470 h 13.19298 v -46.31579 h 13.75438 v -11.57895 h -40.70175 z"/>
		<path d="m 763.81907,470 h 13.19298 l -5.19298,-57.89474 h -14.03509 l -12.8421,33.40351 -12.84211,-33.40351 H 718.06469 L 712.8717,470 h 13.19299 l 2.73684,-34.31579 h 0.35087 l 11.85965,33.96491 h 7.85965 l 11.85965,-33.96491 h 0.35088 z"/>
		<path d="M 816.70067,412.10526 H 804.49014 L 781.12172,470 h 14.17544 l 4.2807,-11.57895 h 22.03509 L 825.89365,470 h 14.17544 z m 0.42105,34.73685 H 804.06909 L 810.52523,430 h 0.14035 z"/>
		<path d="m 891.75,412.10526 h -13.19299 v 33.47369 c 0,9.68421 -2.94736,12.49123 -9.4035,12.49123 -6.45614,0 -9.40351,-2.80702 -9.40351,-12.49123 v -33.47369 h -13.19298 v 37.33334 c 0,14.31579 7.85964,21.61403 22.59649,21.61403 14.73684,0 22.59649,-7.29824 22.59649,-21.61403 z"/>
		<path d="M 956.83004,437.57895 H 930.0932 v 10.17544 h 13.33334 c 0,7.08772 -6.24562,11.15789 -12.56141,11.15789 -8.14035,0 -14.73684,-8 -14.73684,-17.82456 0,-10.03509 6.59649,-18.10526 14.73684,-18.10526 5.12281,0 9.54386,2.03508 12.91228,7.43859 l 8.63158,-9.47368 c -5.05263,-6.10526 -12.14035,-9.89474 -22.31579,-9.89474 -16.2807,0 -28.21052,13.40351 -28.21052,30.03509 0,16.5614 12.63157,29.96491 28.21052,29.96491 11.36842,0 23.57895,-6.24561 26.73684,-20.91228 z"/>
		<path d="m 980.78616,446.77193 h 18.66667 V 470 h 13.19297 v -57.89474 h -13.19297 v 23.08772 H 980.78616 V 412.10526 H 967.59318 V 470 h 13.19298 z"/>
		<path d="m 1055.4507,412.10526 h -12.2106 L 1019.8717,470 h 14.1755 l 4.2807,-11.57895 h 22.035 L 1064.6437,470 h 14.1754 z m 0.421,34.73685 h -13.0526 L 1049.2752,430 h 0.1404 z"/>
		<path d="m 1133.8684,470 h 13.193 l -5.193,-57.89474 h -14.0351 l -12.8421,33.40351 -12.8421,-33.40351 H 1088.114 L 1082.9211,470 h 13.1929 l 2.7369,-34.31579 h 0.3509 l 11.8596,33.96491 h 7.8596 l 11.8597,-33.96491 h 0.3509 z"/>
	</g>
</svg>
